<svg width="1200" height="620" viewBox="0 0 1200 620" fill="none" xmlns="http://www.w3.org/2000/svg">
  <rect width="1200" height="620" rx="34" fill="#050505"/>
  <rect x="1" y="1" width="1198" height="618" rx="33" stroke="#2A2A32"/>
  <circle cx="1010" cy="60" r="220" fill="#E50914" opacity=".12"/>
  <rect x="44" y="42" width="1112" height="536" rx="24" fill="#0B0B0F" stroke="#2A2A32"/>
  <rect x="44" y="42" width="240" height="536" rx="24" fill="#07070A"/>
  <rect x="74" y="72" width="54" height="54" rx="14" fill="#E50914"/>
  <text x="91" y="109" fill="white" font-family="Inter, Segoe UI, Arial, sans-serif" font-size="30" font-weight="900">N</text>
  <text x="145" y="94" fill="white" font-family="Inter, Segoe UI, Arial, sans-serif" font-size="24" font-weight="900">NexusRM</text>
  <text x="145" y="116" fill="#A1A1AA" font-family="Inter, Segoe UI, Arial, sans-serif" font-size="13">B2B система продаж</text>
  <g fill="#A1A1AA" font-family="Inter, Segoe UI, Arial, sans-serif" font-size="16" font-weight="700">
    <text x="82" y="172">Дашборд</text>
    <text x="82" y="218">Клиенты</text>
    <text x="82" y="264">Сделки</text>
    <text x="82" y="310">Задачи</text>
    <text x="82" y="356">AI Ассистент</text>
    <text x="82" y="402">API Документация</text>
  </g>
  <rect x="62" y="148" width="186" height="36" rx="9" fill="#E50914" opacity=".22"/>
  <rect x="318" y="72" width="340" height="74" rx="14" fill="#111116" stroke="#2A2A32"/>
  <text x="344" y="104" fill="#A1A1AA" font-family="Inter, Segoe UI, Arial, sans-serif" font-size="14">Центр управления продажами</text>
  <text x="344" y="132" fill="white" font-family="Inter, Segoe UI, Arial, sans-serif" font-size="32" font-weight="900">Дашборд</text>
  <rect x="690" y="72" width="430" height="46" rx="12" fill="#111116" stroke="#2A2A32"/>
  <text x="716" y="101" fill="#71717A" font-family="Inter, Segoe UI, Arial, sans-serif" font-size="15">Поиск клиентов, сделок, задач...</text>
  <g font-family="Inter, Segoe UI, Arial, sans-serif">
    <rect x="318" y="178" width="150" height="112" rx="16" fill="#111116" stroke="#2A2A32"/>
    <text x="340" y="213" fill="#A1A1AA" font-size="14">Клиенты</text>
    <text x="340" y="258" fill="white" font-size="38" font-weight="900">3</text>
    <text x="340" y="276" fill="#FCA5A5" font-size="13">+18%</text>
    <rect x="490" y="178" width="150" height="112" rx="16" fill="#111116" stroke="#2A2A32"/>
    <text x="512" y="213" fill="#A1A1AA" font-size="14">Сделки</text>
    <text x="512" y="258" fill="white" font-size="38" font-weight="900">4</text>
    <text x="512" y="276" fill="#FCA5A5" font-size="13">+7</text>
    <rect x="662" y="178" width="190" height="112" rx="16" fill="#111116" stroke="#2A2A32"/>
    <text x="684" y="213" fill="#A1A1AA" font-size="14">Выручка</text>
    <text x="684" y="258" fill="white" font-size="36" font-weight="900">$42k</text>
    <text x="684" y="276" fill="#FCA5A5" font-size="13">+24%</text>
    <rect x="874" y="178" width="246" height="112" rx="16" fill="#111116" stroke="#2A2A32"/>
    <text x="898" y="213" fill="#A1A1AA" font-size="14">Конверсия</text>
    <text x="898" y="258" fill="white" font-size="38" font-weight="900">31%</text>
    <text x="898" y="276" fill="#FCA5A5" font-size="13">+4.2%</text>
  </g>
  <rect x="318" y="322" width="528" height="210" rx="18" fill="#111116" stroke="#2A2A32"/>
  <text x="344" y="360" fill="white" font-family="Inter, Segoe UI, Arial, sans-serif" font-size="22" font-weight="900">Прогноз выручки</text>
  <path d="M348 486C398 466 420 420 470 434C522 448 544 398 592 414C646 432 674 374 732 392C774 405 792 376 820 360" stroke="#E50914" stroke-width="5" stroke-linecap="round"/>
  <path d="M348 510H810" stroke="#2A2A32"/>
  <path d="M348 460H810" stroke="#2A2A32"/>
  <path d="M348 410H810" stroke="#2A2A32"/>
  <rect x="876" y="322" width="244" height="210" rx="18" fill="#111116" stroke="#2A2A32"/>
  <text x="902" y="360" fill="white" font-family="Inter, Segoe UI, Arial, sans-serif" font-size="22" font-weight="900">AI уведомления</text>
  <rect x="902" y="390" width="190" height="42" rx="10" fill="#E50914" opacity=".16"/>
  <text x="918" y="416" fill="#F4F4F5" font-family="Inter, Segoe UI, Arial, sans-serif" font-size="14">RedForge в зоне риска</text>
  <rect x="902" y="446" width="174" height="42" rx="10" fill="#E50914" opacity=".16"/>
  <text x="918" y="472" fill="#F4F4F5" font-family="Inter, Segoe UI, Arial, sans-serif" font-size="14">Сделка 72%</text>
</svg>
